<svg xmlns="http://www.w3.org/2000/svg" xmlns:xlink="http://www.w3.org/1999/xlink" viewBox="0 0 29 31"><path d="M 0 13.297 L 21.55 13.297 L 21.55 17.543 L 0 17.543 Z M 10.735 0 L 14.099 0 L 14.099 3.364 L 10.735 3.364 Z M 14.099 3.364 L 17.464 3.364 L 17.464 6.729 L 14.099 6.729 Z M 17.464 6.729 L 20.829 6.729 L 20.829 10.093 L 17.464 10.093 Z" fill="rgb(255,255,255)"></path><path d="M 20.829 10.093 L 24.193 10.093 L 24.193 13.457 L 20.829 13.457 Z M 24.193 17.543 L 20.829 17.543 L 20.829 20.907 L 24.193 20.907 Z M 20.829 20.907 L 17.464 20.907 L 17.464 24.271 L 20.829 24.271 Z M 17.464 24.271 L 14.099 24.271 L 14.099 27.636 L 17.464 27.636 Z M 14.099 27.636 L 10.735 27.636 L 10.735 31 L 14.099 31 Z M 26.572 13.057 L 28.952 15.436 L 26.572 17.815 L 24.193 15.436 Z" fill="rgb(255,255,255)"></path><path d="M 21.55 13.297 L 24.193 13.297 L 24.193 17.543 L 21.55 17.543 Z" fill="rgb(255,255,255)"></path></svg>