<svg width="142" height="72" viewBox="0 0 142 72" fill="none" xmlns="http://www.w3.org/2000/svg">
<path d="M125 2.1111C134.5 4.61105 141 12.6111 141 12.6111L136 19.6111C136 19.6111 128.576 12.2655 122.5 10.1111C114.955 7.43567 102 10.1111 102 10.1111L101.5 2.1111C101.5 2.1111 115.5 -0.388861 125 2.1111Z" fill="#FFFB00"/>
<path d="M101 2.1111H101.5M101.5 2.1111C101.5 2.1111 115.5 -0.388861 125 2.1111C134.5 4.61105 141 12.6111 141 12.6111L136 19.6111C136 19.6111 128.576 12.2655 122.5 10.1111C114.955 7.43567 102 10.1111 102 10.1111L101.5 2.1111Z" stroke="black"/>
<path d="M35 20C55.0001 20 68.5 33.5 68.5 45.5C68.5 57.5 57.5001 71.5 35 71.5C12.4999 71.5 0.999939 61 1 45.5C1.00006 30 14.9999 20 35 20Z" fill="#FFFB00" stroke="black"/>
<path d="M107 20C127 20 140.5 33.5 140.5 45.5C140.5 57.5 129.5 71.5 107 71.5C84.4999 71.5 72.9999 61 73 45.5C73.0001 30 86.9999 20 107 20Z" fill="#FFFB00" stroke="black"/>
</svg>
